<?xml version="1.0" encoding="utf-8"?>
<!-- Generator: Adobe Illustrator 19.2.1, SVG Export Plug-In . SVG Version: 6.00 Build 0)  -->
<svg version="1.1" id="Layer_1" xmlns="http://www.w3.org/2000/svg" xmlns:xlink="http://www.w3.org/1999/xlink" x="0px" y="0px"
	 viewBox="0 0 50 50" style="enable-background:new 0 0 50 50;" xml:space="preserve">
<style type="text/css">
	.st0{opacity:0.4;fill:#FFFFFF;}
</style>
<path class="st0" d="M25,0C11.2,0,0,11.2,0,25c0,13.8,11.2,25,25,25s25-11.2,25-25C50,11.2,38.8,0,25,0z M18.6,36.8h-5.7v-17h5.7
	V36.8z M18.5,14.4c0,1.7-1.3,3-3,3c-1.7,0-3-1.3-3-3c0-1.7,1.3-3,3-3c1,0,2,0.5,2.5,1.4C18.3,13.2,18.5,13.7,18.5,14.4
	C18.5,14.3,18.5,14.3,18.5,14.4C18.5,14.3,18.5,14.3,18.5,14.4z M39,36.8L39,36.8l-5.7,0v-9.1c0-2.3-0.8-3.8-2.9-3.8
	c-1.6,0-2.5,1.1-2.9,2.1c-0.1,0.4-0.2,0.9-0.2,1.4v9.5h-5.7c0,0,0.1-15.4,0-17h5.7v2.4c0.8-1.2,2.1-2.8,5.1-2.8
	c3.7,0,6.5,2.4,6.5,7.7V36.8z"/>
</svg>
