<?xml version="1.0" encoding="utf-8"?>
<!-- Generator: Adobe Illustrator 21.0.0, SVG Export Plug-In . SVG Version: 6.00 Build 0)  -->
<svg version="1.1" id="Judge" xmlns="http://www.w3.org/2000/svg" xmlns:xlink="http://www.w3.org/1999/xlink" x="0px" y="0px"
	 viewBox="-30 -25 74 74" style="enable-background:new -30 -25 74 74;" xml:space="preserve">
<style type="text/css">
	.st0{fill:#25273B;}
</style>
<g>
	<path class="st0" d="M-0.1,5.3C0.2,5,0.7,5,1,5.3l7.3,7.3l-0.7,0.7c-0.6,0.6-0.9,1.3-0.9,2.1c0,0.8,0.3,1.6,0.9,2.1
		c1.1,1.1,3.1,1.1,4.2,0l0.7-0.7l9.1,9.2c0.5,0.5,0.9,1.2,1.1,1.9l0.7,2.9c0.3,1.1,0.8,2.1,1.6,2.9l0.3,0.3c1.2,1.2,2.7,1.8,4.3,1.8
		c1.6,0,3.2-0.6,4.3-1.8l1.2-1.3c1.2-1.2,1.8-2.7,1.8-4.4s-0.6-3.2-1.8-4.4l-0.3-0.3c-0.8-0.8-1.8-1.4-2.8-1.6l-2.9-0.7
		c-0.7-0.2-1.4-0.6-1.9-1.1l-9.1-9.2l0.7-0.7c1.2-1.2,1.2-3.1,0-4.3c-1.1-1.1-3.1-1.1-4.2,0l-0.7,0.7L6.7-0.4
		c-0.3-0.3-0.3-0.8,0-1.1l1.6-1.6c0.7,0.8,2.1,0.8,2.8,0l1.2-1.3c0.3-0.3,0.5-0.7,0.6-1.1c0.4-0.1,0.8-0.3,1.1-0.6l1.1-1.1
		c0.9-0.9,0.9-2.3,0-3.2l-8.9-8.9c-0.8-0.9-2.3-0.9-3.2,0l-1.1,1.1c-0.3,0.3-0.5,0.7-0.6,1.2C1-17,0.6-16.8,0.3-16.5l-1.2,1.3
		c-0.4,0.4-0.6,0.9-0.6,1.4c0,0.5,0.2,1.1,0.6,1.4l-9.9,10c-0.7-0.8-2.1-0.8-2.8,0l-1.2,1.3c-0.3,0.3-0.5,0.7-0.6,1.2
		c-0.4,0.1-0.8,0.3-1.1,0.6l-1.1,1.1c-0.9,0.9-0.9,2.3,0,3.2l8.9,8.9c0.4,0.4,1,0.7,1.6,0.7c0.6,0,1.2-0.2,1.6-0.7l1.1-1.1
		c0.3-0.3,0.5-0.7,0.6-1.1c0.4-0.1,0.8-0.3,1.1-0.6l1.2-1.3c0.4-0.4,0.6-0.9,0.6-1.4c0-0.5-0.2-1.1-0.6-1.4L-0.1,5.3z M-6.1,11.4
		l-1.1,1.1c-0.1,0.1-0.2,0.1-0.3,0l-8.9-8.9c-0.1-0.1-0.1-0.2,0-0.3l1.1-1.1C-15.2,2-15.1,2-15.1,2s0.1,0,0.2,0.1l8.9,8.9
		C-6,11.1-6,11.3-6.1,11.4z M3.5-16.8l1.1-1.1C4.6-18,4.7-18,4.7-18s0.1,0,0.2,0.1L13.7-9c0.1,0.1,0.1,0.2,0,0.3l-1.1,1.1
		c-0.1,0.1-0.2,0.1-0.3,0l-8.9-8.9C3.4-16.6,3.4-16.7,3.5-16.8z"/>
	<path class="st0" d="M-16,31.9h9c3.9,0,7,3.2,7,7.1l0,1h-23v-1C-23,35.1-19.9,31.9-16,31.9z"/>
	<path class="st0" d="M-5,28.9c0.6,0,1,0.5,1,1c0,0.6-0.4,1-1,1h-13c-0.6,0-1-0.5-1-1c0-0.6,0.4-1,1-1H-5z"/>
</g>
</svg>
