<?xml version="1.0" encoding="utf-8"?>
<!-- Generator: Adobe Illustrator 21.0.0, SVG Export Plug-In . SVG Version: 6.00 Build 0)  -->
<svg version="1.1" id="Boat" xmlns="http://www.w3.org/2000/svg" xmlns:xlink="http://www.w3.org/1999/xlink" x="0px" y="0px"
	 viewBox="-30 -25 74 74" style="enable-background:new -30 -25 74 74;" xml:space="preserve">
<style type="text/css">
	.st0{fill:#25273B;}
</style>
<g>
	<path class="st0" d="M39,21.3L31.4,37c-0.9,1.8-2.8,3-4.9,3H-18c-0.8,0-1.4-0.9-1-1.6l0,0c0.6-1.2,0.2-2.6-0.8-3.4l-0.1,0
		c-2.5-1.8-4-4.7-4-7.8v-3.6h39.7v0c0-1.2,1-2.2,2.2-2.2H39L39,21.3z M13.6,8.2H5.8c-0.6,0-1.1,0.5-1.1,1.1v12.1
		c0,0.6,0.5,1.1,1.1,1.1h7.7c0.6,0,1.1-0.5,1.1-1.1V9.3C14.7,8.7,14.2,8.2,13.6,8.2z M26.8,12.6H18c-0.6,0-1.1,0.5-1.1,1.1V18
		c0,0.6,0.5,1.1,1.1,1.1h8.8c0.6,0,1.1-0.5,1.1-1.1v-4.4C27.9,13.1,27.4,12.6,26.8,12.6z M-7.4,22.4h8.8c0.6,0,1.1-0.5,1.1-1.1v-8.8
		c0-0.6-0.5-1.1-1.1-1.1h-8.8c-0.6,0-1.1,0.5-1.1,1.1v8.8C-8.5,21.9-8,22.4-7.4,22.4z M-7.9,6l-2.7,2.2v14.3h-11V8.2H-25V6h7.7V2.8
		h-2.8V1.5h2.8V-5h1.1v6.5h2.8v1.3h-2.8V6L-7.9,6L-7.9,6z M-12.7,15h-3.6v3.3h3.6V15z M-12.7,9.8h-3.6V13h3.6V9.8z"/>
</g>
</svg>
