<?xml version="1.0" encoding="utf-8"?>
<!-- Generator: Adobe Illustrator 21.0.0, SVG Export Plug-In . SVG Version: 6.00 Build 0)  -->
<svg version="1.1" id="Crime" xmlns="http://www.w3.org/2000/svg" xmlns:xlink="http://www.w3.org/1999/xlink" x="0px" y="0px"
	 viewBox="-30 -25 74 74" style="enable-background:new -30 -25 74 74;" xml:space="preserve">
<style type="text/css">
	.st0{fill:#25273B;}
</style>
<g>
	<path class="st0" d="M1.9,15.8v-4.7c0-1.9-1.5-3.4-3.4-3.4h-2.2C-3.7,7.4-3.9,7.2-4.1,7c-1.2-1.3-3.5-1.3-4.8,0
		c-0.2,0.2-0.4,0.5-0.5,0.7h-2.2c-1.9,0-3.4,1.5-3.4,3.4v4.7C-18,18.3-20,22.1-20,26.4C-20,33.9-13.9,40-6.5,40S7,33.9,7,26.4
		C7,22.1,5,18.3,1.9,15.8L1.9,15.8z M-6.5,33.2c-3.7,0-6.8-3.1-6.8-6.8s3-6.8,6.8-6.8s6.8,3.1,6.8,6.8C0.3,30.1-2.8,33.2-6.5,33.2z"
		/>
	<path class="st0" d="M30.1-0.2c-3-3-7.1-4.3-11-3.9l-3.3-3.3c-1.3-1.3-3.5-1.3-4.8,0L9.3-5.8C8.3-6,7.1-5.7,6.3-4.9
		c-0.6,0.6-1,1.5-1,2.4c0,0.2,0,0.5,0.1,0.7L3.8-0.2c-1.3,1.3-1.3,3.5,0,4.8l3.3,3.3C6.7,11.9,8,16,11,19c2.6,2.7,6.1,4,9.5,4
		c3.5,0,6.9-1.3,9.5-4C35.3,13.7,35.3,5.1,30.1-0.2L30.1-0.2z M25.3,14.2c-2.6,2.7-6.9,2.7-9.5,0c-2.6-2.7-2.6-7,0-9.6l0,0
		c1.3-1.3,3-2,4.8-2c1.7,0,3.5,0.7,4.8,2C27.9,7.2,27.9,11.5,25.3,14.2z"/>
	<path class="st0" d="M0.6-3.2c0.2,0,0.4,0,0.6-0.1C3-3.6,4.3-5.4,3.9-7.2C3.6-9.1,1.8-10.3,0-9.9C-1.8-9.6-3.1-7.9-2.7-6
		C-2.4-4.3-1-3.2,0.6-3.2L0.6-3.2z"/>
	<path class="st0" d="M-6.8,3C-6.5,3-6.3,3.1-6,3.1c1.5,0,2.9-1.1,3.3-2.6c0.4-1.8-0.7-3.7-2.5-4.1c-1.8-0.4-3.6,0.7-4.1,2.5
		C-9.7,0.7-8.6,2.5-6.8,3L-6.8,3z"/>
</g>
</svg>
