<?xml version="1.0" encoding="utf-8"?>
<!-- Generator: Adobe Illustrator 21.0.0, SVG Export Plug-In . SVG Version: 6.00 Build 0)  -->
<svg version="1.1" id="Customs" xmlns="http://www.w3.org/2000/svg" xmlns:xlink="http://www.w3.org/1999/xlink" x="0px" y="0px"
	 viewBox="-30 -25 74 74" style="enable-background:new -30 -25 74 74;" xml:space="preserve">
<style type="text/css">
	.st0{fill:#25273B;}
</style>
<g>
	<path class="st0" d="M22.6,22.1c-5.2-2-6.7-2.6-7.2-2.7c-0.1,0-0.3,0-0.4,0.1l-4.7,3.3c-0.1,0.1-0.2,0.2-0.2,0.4
		c0,0.1,0,0.3,0.1,0.4l2.4,2.4L10,28.7c-0.2,0.2-0.2,0.5,0,0.7l2.4,3.2l-3.3,6.7c-0.1,0.2-0.1,0.3,0,0.5C9.2,39.9,9.4,40,9.5,40
		h19.9c0.3,0,0.5-0.2,0.5-0.5C30.1,37.2,30.8,25.4,22.6,22.1z"/>
	<path class="st0" d="M1.6,32.5L4,29.3c0.2-0.2,0.1-0.5,0-0.7l-2.7-2.7l2.4-2.4c0.1-0.1,0.2-0.3,0.1-0.4c0-0.1-0.1-0.3-0.2-0.4
		l-4.7-3.3c-0.1-0.1-0.3-0.1-0.4-0.1C-1.9,19.4-3.4,20-8.6,22c-8.2,3.4-7.5,15.1-7.3,17.5c0,0.3,0.2,0.5,0.5,0.5H4.5
		c0.2,0,0.3-0.1,0.4-0.2c0.1-0.1,0.1-0.3,0-0.5L1.6,32.5z"/>
	<path class="st0" d="M10.4,32.4l-2.7-3.5l2.6-2.6c0.1-0.1,0.1-0.2,0.1-0.4c0-0.2-0.1-0.3-0.1-0.4l-2.9-2.9c-0.2-0.2-0.5-0.2-0.7,0
		l-2.9,2.9c-0.2,0.2-0.2,0.5,0,0.7l2.6,2.6l-2.7,3.5c-0.1,0.1-0.1,0.3-0.1,0.5l3,6.7c0.1,0.2,0.3,0.3,0.5,0.3c0.2,0,0.4-0.1,0.5-0.3
		l3-6.7C10.6,32.8,10.6,32.6,10.4,32.4z"/>
	<path class="st0" d="M5.8,6.5h2.6c1.2,0,7.1-0.2,9.3-3.6c0.1-0.1,0.1-0.3,0.1-0.4c-0.2-0.1-0.3-0.3-0.4-0.3C14.8,0.8,10.9,0,7,0
		C3.1,0-0.8,0.8-3.4,2.2c-0.1,0.1-0.2,0.2-0.2,0.3c0,0.1,0,0.3,0.1,0.4C-1.3,6.4,4.6,6.5,5.8,6.5z"/>
	<path class="st0" d="M-4.4,4.2c-0.2,0.1-0.3,0.2-0.3,0.4c0,0.3,0,0.5,0,0.8C-5,12.3,0.3,17.7,7,17.8c6.7-0.1,12-5.6,12-12.4
		c0-0.2,0-0.5,0-0.8c0-0.2-0.1-0.4-0.3-0.4c-0.2-0.1-0.4,0-0.5,0.1c-2.9,2.9-8.2,3.3-9.8,3.3H5.8C4.2,7.6-1.1,7.4-4,4.3
		C-4.1,4.2-4.2,4.1-4.4,4.2z"/>
	<path class="st0" d="M-5.9-2c0.2,0.1,0.4,0.2,0.6,0.1c1.8-1,7.4-2.7,12.2-2.7c5,0,10.6,1.7,12.3,2.7c0.1,0,0.2,0.1,0.2,0.1
		c0.1,0,0.2,0,0.3-0.1c1.2-1.1,2.1-1.9,2.4-2.2c0.2-0.2,0.2-0.5,0.1-0.7C22.1-4.9,22-5,21.9-5.2c-0.5-0.5-1.2-1.3-1.5-2.6l-0.2-0.7
		c-0.2-1.8-0.3-2.5-2.1-2.7h-0.5c-1.9-0.2-4.9-0.5-7.3-2.6c-2-1.8-2.8-2-3.4-2c-0.6,0-1.4,0.2-3.4,2c-2.4,2.1-5.4,2.4-7.3,2.6h-0.5
		c-1.8,0.2-2,0.9-2.3,2.6L-6.6-8c-0.3,1.3-1,2-1.5,2.6C-8.2-5.2-8.3-5-8.4-4.9c-0.2,0.2-0.1,0.5,0.1,0.7C-7.9-3.9-7.1-3.1-5.9-2z
		 M5.3-10.6l0.6-0.1c0.2,0,0.3-0.1,0.4-0.3l0.3-0.6c0.2-0.4,0.8-0.4,0.9,0L7.7-11c0.1,0.2,0.2,0.3,0.4,0.3l0.6,0.1
		C9.2-10.6,9.4-10,9-9.7L8.6-9.3C8.5-9.1,8.4-9,8.5-8.8l0.1,0.6c0.1,0.4-0.4,0.8-0.8,0.6L7.2-7.9C7.1-8,6.9-8,6.8-7.9L6.2-7.6
		C5.8-7.4,5.4-7.7,5.4-8.2l0.1-0.6c0-0.2,0-0.4-0.2-0.5L5-9.7C4.6-10,4.8-10.6,5.3-10.6z"/>
	<path class="st0" d="M18.7-1c-1.4-0.6-6.4-2.4-11.6-2.4C1.7-3.4-3.2-1.6-4.5-1c-0.2,0.1-0.3,0.3-0.3,0.5l0.2,1
		c0,0.2,0.1,0.3,0.3,0.4c0.1,0,0.1,0.1,0.2,0.1C-4.1,1.1-4,1.1-4,1c2.9-1.4,6.8-2.2,11.1-2.2c4.3,0,8.3,0.8,11.1,2.2
		c0,0,0.1,0,0.2,0c0.1-0.1,0.2-0.2,0.3-0.4l0.2-1C19-0.7,18.9-1,18.7-1z"/>
</g>
</svg>
