<?xml version="1.0" encoding="utf-8"?>
<!-- Generator: Adobe Illustrator 21.0.0, SVG Export Plug-In . SVG Version: 6.00 Build 0)  -->
<svg version="1.1" id="Family" xmlns="http://www.w3.org/2000/svg" xmlns:xlink="http://www.w3.org/1999/xlink" x="0px" y="0px"
	 viewBox="-30 -25 74 74" style="enable-background:new -30 -25 74 74;" xml:space="preserve">
<style type="text/css">
	.st0{fill:#25273B;}
</style>
<g>
	<g>
		<ellipse class="st0" cx="5.2" cy="-8" rx="4" ry="4"/>
		<ellipse class="st0" cx="5.3" cy="-20.5" rx="3.6" ry="3.5"/>
		<path class="st0" d="M-6.3,39.9c0.9,0,1.8-0.8,1.8-1.7c0,0,0-9.7,0-9.7c0-0.1,0.1-0.3,0.3-0.3C-3,27.7-3,26.1-3,25.5
			c0-0.1-0.1-0.2-0.3-0.1l-1.5,0.9c-0.1,0.1-0.4,0.1-0.5,0.1c-1.6,0-9.4,0-9.8,0c-0.3,0-0.4-0.4-0.4-0.7c0-0.1,0-0.4,0-0.5v-5.4
			c0-0.1,0-0.1-0.2-0.1c-1.6,0.7-7.1,3.7-8.6,4.6c-1.2,0.7-1,2.6,1.3,2.6h3.1c0.2,0,0.4,0.1,0.4,0.2c0,0-0.1,11.1-0.1,11.1
			c0,0.9,0.7,1.6,1.6,1.6c0.9,0,1.6-0.7,1.6-1.6c0-0.1,0-4.8,0-4.8c0-0.1,0.1-0.3,0.3-0.3h5.1c0.2,0,0.2,0.1,0.1,0.2
			c-0.5,0.8-1.8,3.1-2.4,4c-0.5,0.6-0.4,1.5,0.1,2c0.6,0.6,1.6,0.6,2.2,0c0,0,1.8-2.7,2.7-4.6c0.1-0.1,0.1-0.1,0.1,0
			c0,1.3,0,2.7,0.1,3.4c0,0,0,0,0,0C-8.1,39.1-7.2,39.9-6.3,39.9z"/>
		<path class="st0" d="M8.6,40c1.4,0,2.5-1.2,2.5-2.4l0-36.8l4.4-3.6C15.8-3,16-3.3,16.2-3.7l3.6-8.4c0.5-1.2-0.1-2.6-1.3-3.1
			c-1-0.4-2-0.1-2.7,0.6c-0.2,0.2-0.3,0.4-0.4,0.7l-0.4,1.1l-5.1-2.8c-0.2-0.1-0.5-0.2-0.8-0.2c0,0,0,0,0,0H1.3
			c-0.3,0-0.6,0.1-0.8,0.2l-5,2.9L-5-13.9c-0.1-0.1-0.1-0.2-0.2-0.3c-0.6-1-1.9-1.4-3-0.9c-1.2,0.5-1.8,1.9-1.3,3.1l3.6,8.4
			C-5.7-3.3-5.5-3-5.2-2.8l5,4.1c0,0,0,36.2,0,36.2c0,1.2,1.1,2.5,2.5,2.5c1.3,0,2.3-1.1,2.4-2.2c0-0.1,0-19.8,0-19.8
			c0-0.1,0.1-0.3,0.3-0.3h1c0.2,0,0.3,0.1,0.3,0.3l0,19.5C6.2,38.8,7.3,40,8.6,40z M1.9-3.1l-3.6-2.9l-1.6-3.8l5-2.9h6.8l5.1,2.8
			L12-6.1L8.4-3.1L1.9-3.1L1.9-3.1z"/>
		<ellipse class="st0" cx="20.7" cy="-0.7" rx="2.5" ry="2.5"/>
		<path class="st0" d="M39,10.6l-0.4-2l-1-4.7c0,0-0.5-2.2-2.4-2.2c-2.4,0-3.6,0-4,0c-0.4,0-0.9-1.2-1.2-1.2c-0.3,0-3.2,0-4.4,0
			c-1.2,0-1.6,0.3-1.6,0.3L23.8,1l-3.3,2.7c0,0-0.1,0.1-0.3,0.3c-0.1,0.2-0.3,0.6-0.3,1.1c0,1,0,2.1,0,3.1c0,4.1,3.4,4.7,3.4,4.7
			s0.2,0,0.5,0c0,0,0,0.1,0,0.1l-2.4,9.1c0,0.1,0,0.2,0.2,0.2h2.9c0.1,0,0.2,0.1,0.2,0.2v15c0,0.1,0,0.2,0,0.2c0,0,0,0,0,0
			c0,1.2,1,2.1,2.2,2.1c1.2,0,2.1-1,2.1-2.1c0-0.2,0-0.3,0-0.4V22.4c0-0.1,0.1-0.2,0.2-0.2l0.8,0c0.1,0,0.2,0.1,0.2,0.2v15
			c0,0.1,0,0.2,0,0.2c0,0,0,0,0,0.1c0,0,0,0,0,0c0,1.2,0.9,2.1,2.1,2.1c1.2,0,2.2-1,2.2-2.1c0-0.2,0-0.3,0-0.4V22.6
			c0-0.1,0.1-0.2,0.2-0.2l2.2-0.1c0.1,0,0.2-0.1,0.2-0.2l-1.7-9.1c0.2,0,0.4,0,0.6,0C39.5,12.9,39,10.6,39,10.6z"/>
		<ellipse class="st0" cx="29.9" cy="-4.7" rx="4" ry="4"/>
	</g>
</g>
</svg>
