<?xml version="1.0" encoding="utf-8"?>
<!-- Generator: Adobe Illustrator 21.0.0, SVG Export Plug-In . SVG Version: 6.00 Build 0)  -->
<svg version="1.1" id="International_trade" xmlns="http://www.w3.org/2000/svg" xmlns:xlink="http://www.w3.org/1999/xlink"
	 x="0px" y="0px" viewBox="-30 -25 74 74" style="enable-background:new -30 -25 74 74;" xml:space="preserve">
<style type="text/css">
	.st0{fill:#25273B;}
</style>
<g>
	<path class="st0" d="M-12.4-4.3c0.6,0.5,1.5,0.4,2-0.3c4.2-5.5,10.5-8.6,17.4-8.6s13.2,3.1,17.4,8.6C24.7-4.2,25.1-4,25.5-4
		c0.3,0,0.6-0.1,0.9-0.3c0.6-0.5,0.7-1.4,0.3-2C21.9-12.5,14.8-16,7-16s-14.9,3.5-19.6,9.7C-13.1-5.7-13-4.8-12.4-4.3z"/>
	<path class="st0" d="M22.1,3.2c0,2.4,2,4.4,4.4,4.4s4.4-2,4.4-4.4s-2-4.4-4.4-4.4S22.1,0.8,22.1,3.2z"/>
	<path class="st0" d="M31,9.1c0,0-1.1-0.3-1.1-0.3c-0.4-0.1-0.8,0-1.2,0.2l-2.2,1.7l-2.2-1.7c-0.3-0.3-0.8-0.3-1.2-0.2
		c0,0-1.1,0.3-1.1,0.3c-1.8,0.6-3,2.3-3,4.1v6.7c0,0.3,0.1,0.5,0.2,0.7l2.2,3.4v8.9c0,0.7,0.6,1.3,1.3,1.3h7.5
		c0.7,0,1.3-0.6,1.3-1.3V24l2.2-3.4c0.1-0.2,0.2-0.5,0.2-0.7v-6.7C34,11.3,32.8,9.7,31,9.1z"/>
	<path class="st0" d="M-12.5,7.6c2.4,0,4.4-2,4.4-4.4s-2-4.4-4.4-4.4s-4.4,2-4.4,4.4S-14.9,7.6-12.5,7.6z"/>
	<path class="st0" d="M-7.9,9.1c0,0-1.1-0.3-1.1-0.3c-0.4-0.1-0.8,0-1.2,0.2l-2.2,1.7l-2.2-1.7c-0.3-0.3-0.8-0.3-1.2-0.2
		c0,0-1.1,0.3-1.1,0.3c-1.8,0.6-3,2.3-3,4.1v6.7c0,0.3,0.1,0.5,0.2,0.7l2.2,3.4v8.9c0,0.7,0.6,1.3,1.3,1.3h7.5
		c0.7,0,1.3-0.6,1.3-1.3V24l2.2-3.4C-5,20.4-5,20.1-5,19.9v-6.7C-5,11.3-6.2,9.7-7.9,9.1z"/>
	<path class="st0" d="M12.7-3c0-3.1-2.6-5.7-5.7-5.7S1.3-6.2,1.3-3c0,3.1,2.6,5.7,5.7,5.7S12.7,0.1,12.7-3z"/>
	<path class="st0" d="M13.3,5.4L13.3,5.4l-1.6-0.5C11.4,4.8,11.1,5,11,5.2l-3.4,9.4c-0.2,0.5-1,0.5-1.2,0L3,5.2
		C2.9,5,2.7,4.9,2.5,4.9c0,0-1.8,0.5-1.8,0.5C-1.3,6.1-2.7,8-2.7,10.2v9.9c0,0.1,0,0.2,0.1,0.3l3.6,5.4v13.7c0,0.3,0.2,0.5,0.5,0.5
		h11.1c0.3,0,0.5-0.2,0.5-0.5V25.8l3.6-5.4c0.1-0.1,0.1-0.2,0.1-0.3v-9.9C16.7,8,15.3,6.1,13.3,5.4z"/>
	<path class="st0" d="M8.3,5.2C8.2,5.1,8,5,7.8,5H6.2C6,5,5.8,5.1,5.7,5.2C5.4,5.5,5.4,5.8,5.6,6.1l0.8,1.3L6,10.6l0.8,2
		c0.1,0.2,0.4,0.2,0.4,0l0.8-2L7.6,7.3l0.8-1.3C8.6,5.8,8.6,5.5,8.3,5.2z"/>
</g>
</svg>
