<?xml version="1.0" encoding="utf-8"?>
<!-- Generator: Adobe Illustrator 19.2.1, SVG Export Plug-In . SVG Version: 6.00 Build 0)  -->
<svg version="1.1" id="Capa_1" xmlns="http://www.w3.org/2000/svg" xmlns:xlink="http://www.w3.org/1999/xlink" x="0px" y="0px"
	 viewBox="232 232 48 48" style="enable-background:new 232 232 48 48;" xml:space="preserve">
<style type="text/css">
	.st0{fill:#F15135;}
	.st1{fill:#5C5C5C;}
</style>
<g>
	<path class="st0" d="M262.2,269.1L262.2,269.1c0,0.5-0.4,0.9-0.9,0.9h-10.6c-0.5,0-0.9-0.4-0.9-0.9l0,0c0-0.6,0.5-1.1,1.1-1.1h2.2
		c0.1-1.3,0.8-2.6,2-3v-13c-0.6-0.4-1-0.7-1-1.4h0.9h2.2h0.9c0,0.7-0.5,1.1-1,1.4v13c1.2,0.4,1.9,1.7,2,3h2.2
		C261.8,268,262.2,268.5,262.2,269.1z M270,259.2c-0.8,2.2-2.9,3.8-5.4,3.8s-4.6-1.6-5.4-3.8h1.2L264,249c0.2-0.4,0.8-0.4,1,0
		l3.8,10.2H270L270,259.2z M267.6,259.2l-3-7.9l-3,7.9L267.6,259.2L267.6,259.2z M247.4,248.4c0.5,0,0.9-0.3,1-0.8
		c0.4-0.1,0.7-0.3,1.1-0.5c0.8-0.4,1.8-0.9,2.7-0.9c0.9,0,1.5,0.4,1.8,0.8c0,0.1,0,0.2,0,0.3c0,1.1,0.9,2,2,2s2-0.9,2-2
		c0-0.1,0-0.2,0-0.3c0.3-0.4,0.9-0.8,1.8-0.8c1,0,1.9,0.5,2.7,0.9c0.4,0.2,0.7,0.4,1.1,0.5c0.1,0.4,0.5,0.8,1,0.8
		c0.6,0,1.1-0.5,1.1-1.1s-0.5-1.1-1.1-1.1c-0.3,0-0.6,0.1-0.8,0.3c-0.3-0.1-0.6-0.3-0.8-0.4c-0.9-0.5-2-1-3.2-1
		c-1.1,0-1.8,0.4-2.3,0.8c-0.2-0.3-0.5-0.4-0.8-0.5c0.4-0.2,0.7-0.6,0.7-1.1c0-0.7-1.3-2.4-1.3-2.4s-1.3,1.7-1.3,2.4
		c0,0.5,0.3,0.9,0.7,1.1c-0.3,0.1-0.6,0.3-0.8,0.5c-0.5-0.4-1.3-0.8-2.3-0.8c-1.2,0-2.3,0.5-3.2,1c-0.3,0.2-0.6,0.3-0.8,0.4
		c-0.2-0.2-0.5-0.3-0.8-0.3c-0.6,0-1.1,0.5-1.1,1.1S246.8,248.4,247.4,248.4z M247.4,263c-2.5,0-4.6-1.6-5.4-3.8h1.2L247,249
		c0.2-0.4,0.8-0.4,1,0l3.5,10.2h1.2C252,261.4,249.9,263,247.4,263z M250.4,259.2l-3-7.9l-3,7.9L250.4,259.2L250.4,259.2z"/>
</g>
<g>
	<path class="st1" d="M256,233c12.7,0,23,10.3,23,23c0,12.7-10.3,23-23,23c-12.7,0-23-10.3-23-23C233,243.3,243.3,233,256,233
		 M256,232c-13.3,0-24,10.7-24,24s10.7,24,24,24c13.3,0,24-10.7,24-24S269.3,232,256,232L256,232z"/>
</g>
</svg>
